<svg width="149" height="128" viewBox="0 0 149 128" fill="none" xmlns="http://www.w3.org/2000/svg">
<g clip-path="url(#clip0_101_9)">
<path d="M32.9536 11.9747C32.0267 8.52927 39.5024 5.57471 41.4655 8.34936C41.7385 7.95489 42.7473 7.71528 43.2102 7.83629C43.6633 7.98968 44.082 8.23316 44.4421 8.55266C44.9643 8.96167 45.5055 9.3852 45.826 9.97329C46.1488 10.559 46.1986 11.3576 45.7643 11.8658C45.4201 12.27 44.4041 12.5314 43.8867 12.6379C43.5259 12.7129 43.2221 12.7734 42.961 12.817C42.7238 12.4686 42.6145 12.0462 42.6524 11.6238C42.4766 11.7447 42.3293 11.9037 42.221 12.0895C42.1126 12.2753 42.0459 12.4832 42.0257 12.6984C42.0186 12.7879 44.943 23.7584 44.943 23.7584C44.5916 23.9623 44.222 24.1317 43.8392 24.2643C43.0819 23.0842 42.5019 21.7953 42.1183 20.4404C42.0301 21.3464 42.0413 22.2596 42.1515 23.1631C42.2102 23.6697 42.2941 24.1729 42.4031 24.6708C38.9281 25.4356 33.7013 25.1839 31.4273 21.9313L31.4261 21.8908C31.4244 21.7625 31.3789 21.6387 31.2975 21.5407C31.216 21.4428 31.1037 21.3767 30.9798 21.3539C30.8558 21.3311 30.728 21.353 30.6181 21.4157C30.5082 21.4784 30.4231 21.5782 30.3775 21.6978C30.3223 21.8413 30.2715 21.9656 30.2262 22.0644C29.564 19.649 30.4209 16.8538 32.9536 11.9747Z" fill="#2F2E41"/>
<path d="M49.3417 122.18L51.9309 122.158L53.0771 111.738L49.2558 111.771L49.3417 122.18Z" fill="#FFB6B6"/>
<path d="M57.1279 125.412L52.9926 122.552L52.977 120.663L52.0877 120.724L49.3312 120.918L48.6555 120.963L48.165 127.64L50.1074 127.622L50.4384 125.75L51.3396 127.613L56.4875 127.569C56.7343 127.567 56.9739 127.484 57.1714 127.333C57.3689 127.183 57.514 126.971 57.5855 126.731C57.657 126.49 57.6512 126.232 57.5689 125.995C57.4866 125.758 57.3321 125.553 57.1279 125.412L57.1279 125.412Z" fill="#2F2E41"/>
<path d="M23.524 121.151L26.0839 121.548L28.8363 111.445L25.0581 110.86L23.524 121.151Z" fill="#FFB6B6"/>
<path d="M30.7092 125.601L27.071 122.108L27.3494 120.241L26.4619 120.157L23.7102 119.902L23.0358 119.838L21.5131 126.351L23.4337 126.648L24.0516 124.853L24.6518 126.838L29.7413 127.627C29.9853 127.665 30.2347 127.622 30.4532 127.505C30.6717 127.388 30.8478 127.203 30.9559 126.977C31.0639 126.75 31.0983 126.495 31.0539 126.247C31.0095 126 30.8887 125.773 30.7091 125.601L30.7092 125.601Z" fill="#2F2E41"/>
<path d="M48.1508 49.383L55.4921 62.7888C55.4921 62.7888 55.1857 90.36 56.1614 91.3826C57.137 92.4052 58.0204 93.3224 57.137 93.3142C56.2537 93.3059 55.1845 95.4974 55.1845 95.4974L53.3574 116.213H48.7501C48.7501 116.213 45.5082 103.997 46.1992 97.0302L40.7411 71.5712C40.7411 71.5712 36.82 95.6476 36.1133 96.3681C35.4066 97.0886 34.9803 97.0835 35.7235 97.8066C36.4666 98.5297 35.7235 100.165 35.7235 100.165L27.9765 116.558L23.7744 116.018C23.7744 116.018 24.5029 102.635 27.0397 96.8897V69.7388C26.8486 72.0667 35.7861 48.5056 30.3207 50.274C32.0499 49.7145 48.1508 49.383 48.1508 49.383Z" fill="#2F2E41"/>
<path d="M27.8354 72.5166C28.1353 72.152 28.2838 71.6826 28.2493 71.2081C28.2149 70.7336 28.0002 70.2915 27.6509 69.976C27.579 69.913 27.502 69.8562 27.4208 69.8061L28.6686 63.5623L25.784 61.8021L24.9817 70.5437C24.8042 70.903 24.7483 71.312 24.8228 71.7071C24.8973 72.1021 25.0979 72.4609 25.3934 72.7274C25.7359 73.0304 26.1824 73.1822 26.6347 73.1496C27.087 73.1169 27.508 72.9024 27.8052 72.5532C27.8154 72.5411 27.8255 72.5289 27.8354 72.5166Z" fill="#FFB6B6"/>
<path d="M72.7227 58.8464C72.2607 58.7794 71.8426 58.5312 71.5574 58.1546C71.2721 57.7781 71.1422 57.3029 71.1954 56.8302C71.2076 56.7343 71.2277 56.6396 71.2553 56.5471L66.2358 52.7508L67.2289 49.4762L73.5536 55.4345C73.9211 55.581 74.2307 55.8473 74.4341 56.192C74.6375 56.5367 74.7233 56.9403 74.678 57.3399C74.6501 57.5671 74.5786 57.7864 74.4676 57.9853C74.3566 58.1843 74.2082 58.359 74.031 58.4995C73.8537 58.64 73.6511 58.7436 73.4346 58.8042C73.2181 58.8648 72.992 58.8814 72.7692 58.853C72.7537 58.851 72.7382 58.8488 72.7227 58.8464Z" fill="#FFB6B6"/>
<path d="M38.7626 22.0925C42.1252 22.0925 44.8511 19.3132 44.8511 15.8847C44.8511 12.4563 42.1252 9.67693 38.7626 9.67693C35.4 9.67693 32.674 12.4563 32.674 15.8847C32.674 19.3132 35.4 22.0925 38.7626 22.0925Z" fill="#FFB6B6"/>
<path d="M126.99 121.374L124.858 122.787L118.497 115.076L121.644 112.99L126.99 121.374Z" fill="#FFB6B6"/>
<path d="M128.512 123.592L121.956 127.938L121.902 127.854C121.462 127.164 121.309 126.324 121.476 125.518C121.643 124.713 122.118 124.009 122.794 123.56L122.794 123.56L123.401 121.84L126.226 121.285L126.799 120.905L128.512 123.592Z" fill="#2F2E41"/>
<path d="M90.4543 125.077L87.9113 125.077L86.7016 115.076L90.4548 115.077L90.4543 125.077Z" fill="#FFB6B6"/>
<path d="M90.5438 127.782L82.7238 127.782V127.681C82.7239 126.858 83.0446 126.069 83.6154 125.487C84.1862 124.905 84.9603 124.578 85.7676 124.578H85.7678L87.1962 123.473L89.8613 124.578L90.544 124.578L90.5438 127.782Z" fill="#2F2E41"/>
<path d="M116.777 63.3659L93.9726 63.8771L91.7123 66.7579C91.7123 66.7579 91.9077 65.7422 91.7338 66.8578C91.5598 67.9733 87.1604 90.2157 87.992 90.9617C88.8236 91.7077 86.4151 96.8581 86.2382 97.1722C86.0613 97.4863 84.1548 112.99 86.2382 114.264L87.0209 119.676H90.6626C90.6626 119.676 94.3108 115.371 93.5766 114.591C92.8424 113.811 94.9423 111.216 95.0225 109.825C95.1028 108.433 95.8695 102.122 95.2755 101.111C94.6815 100.099 93.8785 96.3014 95.3854 94.8293C96.8923 93.3571 103.92 75.2666 103.92 75.2666C103.92 75.2666 105.963 96.4749 105.958 98.1402C105.952 100.306 107.346 99.234 107.346 101.135C107.346 101.519 111.888 111.392 114.941 114.478L121.253 119.428L124.166 117.2V113.983C124.166 113.983 121.467 108.012 120.525 107.051C119.583 106.091 116.105 103.152 116.105 101.807C116.105 100.463 114.468 99.9947 115.569 98.2123C116.67 96.43 116.294 95.6618 115.917 94.8935C115.54 94.1253 116.255 62.6496 116.255 62.6496L116.777 63.3659Z" fill="#2F2E41"/>
<path d="M107.268 16.6942C111.074 16.6942 114.159 13.5486 114.159 9.6684C114.159 5.78816 111.074 2.64261 107.268 2.64261C103.462 2.64261 100.377 5.78816 100.377 9.6684C100.377 13.5486 103.462 16.6942 107.268 16.6942Z" fill="#FFB6B6"/>
<path d="M112.773 66.0512L114.713 60.0978L118.203 60.7531L115.932 66.9729C116.07 67.3374 116.106 67.7338 116.035 68.1178C115.964 68.5017 115.79 68.8579 115.531 69.1462C115.273 69.4346 114.941 69.6437 114.572 69.7501C114.203 69.8565 113.813 69.8559 113.444 69.7485C113.076 69.641 112.744 69.4309 112.487 69.1417C112.229 68.8526 112.055 68.4959 111.986 68.1118C111.916 67.7277 111.953 67.3313 112.092 66.9673C112.231 66.6032 112.467 66.286 112.773 66.0512H112.773Z" fill="#FFB6B6"/>
<path d="M72.5448 54.546L77.2974 50.5619L79.9084 53.0125L74.7366 57.0424C74.663 57.4258 74.4859 57.7807 74.2253 58.0671C73.9647 58.3535 73.6309 58.5601 73.2615 58.6636C72.892 58.7672 72.5016 58.7637 72.134 58.6534C71.7664 58.5432 71.4363 58.3305 71.1807 58.0395C70.9251 57.7484 70.7543 57.3904 70.6873 57.0057C70.6204 56.6211 70.66 56.225 70.8017 55.8621C70.9434 55.4991 71.1816 55.1836 71.4896 54.9511C71.7975 54.7186 72.1629 54.5783 72.5448 54.546V54.546Z" fill="#FFB6B6"/>
<path d="M99.0172 8.43932C99.7601 8.67448 100.476 8.8131 100.959 8.19179C101.443 7.57047 101.316 6.86004 102.035 6.56051C102.636 6.35505 103.291 6.38595 103.87 6.64716C103.975 6.68676 104.077 6.73131 104.176 6.77587C104.232 6.72636 104.288 6.67934 104.349 6.63477C104.805 6.30359 105.369 6.16361 105.924 6.24367C105.519 6.44344 105.185 6.76817 104.97 7.17194C105.169 7.27342 105.371 7.37491 105.575 7.46155C106.432 7.819 107.359 7.96796 108.282 7.89664C109.205 7.82531 110.1 7.53566 110.894 7.05064C110.098 9.18935 110.717 9.95176 111.885 11.9048L111.931 12.0187C111.814 11.5063 113.341 10.9147 113.341 11.6573C113.274 12.4181 113.111 13.1669 112.856 13.8851C114.354 11.5855 115.237 8.89477 114.657 6.31297C114.533 5.77087 114.478 5.18917 114.14 4.74855C113.803 4.31042 113.181 4.05297 112.691 4.30051C112.63 3.461 112.347 2.65397 111.872 1.96522C111.398 1.27648 110.749 0.731758 109.995 0.388977C109.241 0.0461959 108.41 -0.0818339 107.59 0.0184964C106.77 0.118827 105.992 0.443765 105.339 0.958772C104.732 1.43651 104.254 2.06279 103.713 2.61974C103.171 3.1767 102.53 3.68414 101.773 3.82277C101.292 3.90941 100.751 3.85742 100.367 4.16686C99.9228 4.52578 99.9179 5.157 99.9203 5.76346C100.355 5.75082 100.784 5.87061 101.151 6.10753C100.701 6.11906 100.266 6.27498 99.9082 6.5531C99.9013 6.55744 99.8948 6.56241 99.8888 6.56795C99.7577 7.5878 99.8111 7.80316 99.0172 8.43932Z" fill="#2F2E41"/>
<path d="M14.25 123.264C14.1279 123.27 14.0071 123.237 13.9038 123.17C13.8006 123.104 13.7199 123.006 13.6728 122.891C13.6257 122.776 13.6143 122.649 13.6403 122.528C13.6663 122.406 13.7283 122.295 13.8181 122.211L13.8589 122.045C13.8535 122.032 13.8481 122.019 13.8427 122.005C13.7197 121.709 13.5136 121.457 13.2503 121.279C12.9871 121.102 12.6783 121.008 12.3629 121.01C12.0474 121.011 11.7394 121.107 11.4774 121.286C11.2154 121.465 11.0112 121.719 10.8904 122.016C10.4075 123.202 9.79272 124.39 9.64135 125.644C9.57468 126.198 9.60279 126.76 9.72446 127.304C8.59034 124.782 8.00142 122.04 7.99763 119.265C7.99739 118.569 8.03533 117.873 8.11128 117.181C8.17404 116.614 8.26113 116.051 8.37252 115.491C8.98039 112.457 10.2855 109.613 12.1807 107.193C13.098 106.683 13.8398 105.898 14.3061 104.945C14.4751 104.602 14.5945 104.236 14.6607 103.859C14.5572 103.873 14.2705 102.266 14.3486 102.167C14.2044 101.944 13.9463 101.833 13.7888 101.616C13.0055 100.533 11.9264 100.722 11.3631 102.193C10.1596 102.813 10.148 103.84 10.8864 104.827C11.3562 105.456 11.4207 106.306 11.8329 106.979C11.7905 107.034 11.7464 107.088 11.704 107.143C10.9288 108.159 10.2532 109.251 9.68676 110.402C9.8245 109.112 9.6601 107.808 9.20709 106.597C8.74796 105.467 7.88739 104.516 7.12956 103.54C6.92912 103.278 6.65693 103.082 6.34738 102.977C6.03784 102.873 5.70483 102.864 5.39047 102.953C5.0761 103.041 4.79449 103.222 4.58122 103.474C4.36796 103.725 4.23262 104.036 4.1923 104.366C4.19075 104.38 4.18924 104.394 4.18776 104.409C4.30032 104.474 4.41051 104.542 4.51832 104.615C4.65375 104.707 4.75869 104.839 4.81939 104.993C4.88009 105.147 4.89372 105.316 4.85849 105.479C4.82326 105.641 4.74081 105.788 4.62195 105.902C4.50309 106.015 4.35335 106.09 4.19237 106.115L4.17589 106.118C4.21599 106.531 4.28687 106.941 4.38792 107.344C3.41572 111.177 5.51463 112.573 8.5116 112.636C8.57776 112.671 8.64223 112.705 8.70839 112.738C8.13932 114.382 7.78236 116.095 7.6465 117.833C7.56958 118.859 7.57413 119.889 7.66008 120.914L7.65498 120.877C7.43784 119.738 6.84168 118.71 5.96717 117.966C4.6683 116.879 2.83324 116.478 1.43199 115.604C1.28307 115.506 1.10992 115.454 0.932949 115.454C0.755978 115.453 0.582577 115.504 0.433192 115.601C0.283807 115.698 0.164668 115.836 0.0898363 116C0.0150049 116.163 -0.0123984 116.345 0.0108501 116.524L0.0165807 116.562C0.225465 116.649 0.428843 116.749 0.62554 116.861C0.738103 116.926 0.848288 116.995 0.956096 117.067C1.09153 117.16 1.19647 117.292 1.25717 117.446C1.31787 117.6 1.3315 117.769 1.29627 117.931C1.26104 118.093 1.17859 118.241 1.05973 118.354C0.940867 118.468 0.791138 118.542 0.630157 118.567L0.613654 118.57C0.601783 118.572 0.591599 118.573 0.579751 118.575C0.936657 119.444 1.43758 120.244 2.0606 120.939C2.66849 124.286 5.2794 124.603 8.07226 123.629H8.07397C8.3804 124.987 8.82439 126.308 9.39878 127.572H14.1314C14.1484 127.519 14.1637 127.463 14.1789 127.41C13.7409 127.438 13.3011 127.411 12.8694 127.33C13.2205 126.891 13.5717 126.448 13.9228 126.009C13.9306 126 13.938 125.992 13.9449 125.983C14.123 125.758 14.3028 125.535 14.4809 125.31L14.481 125.31C14.4905 124.62 14.4129 123.933 14.2502 123.264L14.25 123.264Z" fill="#F2F2F2"/>
<path d="M0.175294 127.681C0.175172 127.723 0.18317 127.765 0.198834 127.803C0.214498 127.842 0.23752 127.877 0.266567 127.907C0.295615 127.937 0.330116 127.96 0.368091 127.976C0.406066 127.992 0.446763 128 0.487841 128H148.687C148.77 128 148.85 127.966 148.908 127.907C148.967 127.847 149 127.766 149 127.681C149 127.597 148.967 127.516 148.908 127.456C148.85 127.396 148.77 127.363 148.687 127.363H0.487841C0.446764 127.363 0.406066 127.371 0.368091 127.387C0.330117 127.403 0.295614 127.426 0.266567 127.456C0.23752 127.485 0.214506 127.521 0.198842 127.559C0.183178 127.598 0.175173 127.639 0.175294 127.681Z" fill="#CCCCCC"/>
<path d="M24.6705 66.5537L28.3645 66.7407L30.4145 57.9728C35.1277 56.8924 36.2456 53.9377 37.9401 54.4462C45.457 56.7025 54.3906 56.4633 51.3506 53.3638C50.1042 52.093 49.4834 47.8745 49.1844 43.3393H26.2395L24.6705 66.5537Z" fill="#FED701"/>
<path d="M52.1418 43.3394L68.5447 54.9088L71.1707 52.2536L62.1617 43.3394H52.1418Z" fill="#FED701"/>
<path d="M54.7661 36.0214L48.9868 29.7352C48.9888 29.6694 48.99 29.6319 48.99 29.6319L48.8138 29.547L47.1327 27.7185C46.6544 27.1946 46.0773 26.7746 45.4359 26.4836C44.7946 26.1925 44.1023 26.0364 43.4004 26.0245C43.2011 26.0214 43.0018 26.0296 42.8033 26.0491L41.9112 23.8206L34.4483 22.2066L32.9665 25.2476L30.0731 26.9555C29.4038 27.1839 28.7867 27.5481 28.2591 28.0263L27.9765 28.1931L27.9975 28.2807C27.051 29.2507 26.5082 30.5556 26.482 31.9236L26.2421 43.3013L26.2395 43.3393H49.1844C49.1444 42.734 49.1101 42.1233 49.0809 41.513C50.1187 42.055 51.1265 42.6548 52.0998 43.3095L52.142 43.3393H62.1618L54.7661 36.0214Z" fill="#015ABB"/>
<path d="M77.4725 48.704C78.0689 49.9058 77.231 49.095 76.2937 49.3121C75.3564 49.5293 75.8109 50.094 75.8321 50.9266C75.8534 51.7591 72.6296 53.511 72.6296 53.511C74.5965 54.2278 77.0603 57.1745 77.0603 57.1745C77.0603 57.1745 79.4462 54.6117 79.8794 54.3438C80.3125 54.076 80.554 53.685 81.9244 53.2C83.2949 52.715 82.7197 52.3458 82.8192 51.3177C82.9186 50.2897 83.2523 51.0499 85.1766 50.1015C87.1009 49.1532 85.5388 49.5151 86.0714 48.2192C86.604 46.9233 86.4335 47.6328 88.1661 46.5614C89.2075 45.9174 90.2418 44.9716 91.6811 43.3393H80.6998C78.6745 46.192 77.2954 48.3471 77.4725 48.704Z" fill="#FED701"/>
<path d="M123.858 40.6442C124.243 37.3745 123.756 33.8826 123.262 31.4684C123.101 30.6847 122.784 29.9432 122.329 29.2904C121.875 28.6376 121.293 28.0876 120.62 27.6747C120.57 27.4125 120.481 27.2447 120.344 27.1951C118.385 26.4852 112.917 23.2055 112.917 23.2055L112.459 19.4552L102.565 18.9705L100.033 23.2055C100.033 23.2055 93.4745 23.8776 93.5961 26.3255C92.0078 28.3454 84.9375 37.3707 80.6998 43.3393H91.6811C92.6364 42.2559 93.7697 40.8707 95.2031 39.0685C95.2128 39.0563 95.222 39.0435 95.2317 39.0313C95.328 40.4922 95.4022 41.9537 95.4463 43.3393H123.525C123.632 42.5267 123.742 41.634 123.858 40.6442Z" fill="#015ABB"/>
<path d="M123.525 43.3393H95.4463C95.5716 47.2765 95.452 50.5963 94.8899 51.5105C94.101 52.7937 92.7656 57.088 91.68 60.8584C91.4699 61.5896 91.4328 62.3612 91.5718 63.1098C91.7108 63.8585 92.022 64.5628 92.4797 65.1651C92.9375 65.7674 93.5288 66.2504 94.2051 66.5745C94.8814 66.8986 95.6235 67.0545 96.3704 67.0295C103.105 66.8032 112.959 66.2794 114.88 65.1302C115.925 65.2825 116.957 65.5138 117.968 65.8223C117.968 65.8223 118.647 62.3574 118.874 61.8954C119.1 61.4334 119.1 60.9715 120.007 59.8165C120.913 58.6615 120.233 58.6615 119.78 57.7376C119.327 56.8136 120.007 57.2756 121.139 55.4276C122.272 53.5797 121.139 54.7347 120.913 53.3487C120.686 51.9628 120.913 52.6558 121.819 50.8078C122.57 49.2766 123.01 47.2676 123.525 43.3393Z" fill="#FED701"/>
<path d="M29.6304 12.4588C28.7036 9.01331 36.1793 6.05875 38.1424 8.8334C38.4154 8.43893 39.4242 8.19932 39.8871 8.32033C40.3401 8.47372 40.7588 8.71721 41.119 9.03671C41.6412 9.44571 42.1824 9.86923 42.5028 10.4573C42.8257 11.043 42.8755 11.8417 42.4411 12.3499C42.0969 12.754 41.081 13.0154 40.5635 13.1219C40.2027 13.1969 39.8989 13.2574 39.6378 13.301C39.4006 12.9526 39.2914 12.5302 39.3292 12.1079C39.1535 12.2287 39.0062 12.3878 38.8978 12.5736C38.7895 12.7593 38.7228 12.9673 38.7026 13.1824C38.6955 13.272 41.6198 24.2425 41.6198 24.2425C41.2684 24.4464 40.8989 24.6157 40.5161 24.7483C39.7588 23.5682 39.1787 22.2794 38.7951 20.9245C38.707 21.8305 38.7181 22.7437 38.8284 23.6471C38.887 24.1538 38.971 24.657 39.08 25.1549C35.6049 25.9197 30.3781 25.668 28.1042 22.4153L28.103 22.3749C28.1013 22.2465 28.0558 22.1227 27.9743 22.0248C27.8929 21.9268 27.7806 21.8608 27.6567 21.838C27.5327 21.8152 27.4049 21.837 27.295 21.8997C27.1851 21.9625 27.1 22.0622 27.0543 22.1819C26.9992 22.3254 26.9484 22.4496 26.9031 22.5484C26.2409 20.1331 27.0978 17.3378 29.6304 12.4588Z" fill="#2F2E41"/>
<path d="M72.7331 32.1642C72.7242 32.1729 72.7161 32.1822 72.7073 32.191C72.0493 31.5253 71.1613 31.1495 70.2344 31.1443C69.3074 31.1392 68.4155 31.5052 67.7504 32.1636V32.1636C67.0832 32.8245 66.6981 33.7266 66.6783 34.6748C66.6586 35.623 67.006 36.541 67.6451 37.2301L67.6443 37.2309L67.6774 37.2657L72.5753 42.4074L77.6523 37.3798L77.6382 37.365C77.6468 37.3567 77.6556 37.3491 77.6641 37.3407C78.3374 36.674 78.7233 35.7619 78.737 34.8051C78.7507 33.8483 78.391 32.9251 77.7371 32.2386V32.2386C77.0833 31.5522 76.1887 31.1587 75.2503 31.1447C74.3118 31.1308 73.4064 31.4975 72.7331 32.1642V32.1642Z" fill="#FED701"/>
</g>
<defs>
<clipPath id="clip0_101_9">
<rect width="149" height="128" fill="white"/>
</clipPath>
</defs>
</svg>
